<?xml version="1.0" encoding="iso-8859-1"?>
<!-- Generator: Adobe Illustrator 19.0.0, SVG Export Plug-In . SVG Version: 6.00 Build 0)  -->
<svg xmlns="http://www.w3.org/2000/svg" xmlns:xlink="http://www.w3.org/1999/xlink" version="1.1" id="Layer_1" x="0px" y="0px" viewBox="0 0 511 511" style="enable-background:new 0 0 511 511;" xml:space="preserve" width="512" height="512">
<g>
	<g>
		<g>
			<path style="fill:#C8E5FC;" d="M342.27,153.09l-0.84-6.36C340.09,134.92,330.1,126,318.21,126H120.79     c-11.89,0-21.88,8.92-23.22,20.73l-0.84,6.36L85.5,238v10.78h268V238L342.27,153.09z"/>
			<path style="fill:#B8DCF4;" d="M140.73,153.09l0.84-6.36c1.34-11.81,11.33-20.73,23.22-20.73h-44     c-11.89,0-21.88,8.92-23.22,20.73l-0.84,6.36L85.5,238v10.78h44V238L140.73,153.09z"/>
			<g>
				<g>
					<g>
						<path style="fill:#74767F;" d="M341.43,146.73l0.84,6.36H96.73l0.84-6.36C98.91,134.92,108.9,126,120.79,126h197.42        C330.1,126,340.09,134.92,341.43,146.73z"/>
					</g>
				</g>
			</g>
			<path style="fill:#636570;" d="M140.73,153.09L140.73,153.09l0.84-6.36c1.34-11.81,11.33-20.73,23.22-20.73h-44     c-2.229,0-4.392,0.313-6.443,0.901c-1.368,0.392-2.686,0.905-3.941,1.528c-2.511,1.247-4.771,2.933-6.675,4.964     c-1.904,2.032-3.452,4.409-4.539,7.038c-0.815,1.971-1.37,4.084-1.622,6.298l-0.84,6.36H140.73z"/>
			<g>
				<g>
					<g>
						<g>
							<path style="fill:#D1D5CD;" d="M170.5,340v31.57c0,5.76-4.67,10.43-10.43,10.43H124.5v-42H170.5z"/>
						</g>
					</g>
				</g>
				<g>
					<g>
						<g>
							<path style="fill:#74767F;" d="M139.5,382v8.44c0,7.49-6.07,13.56-13.56,13.56H86.06c-7.49,0-13.56-6.07-13.56-13.56V340         h10.51h56.49V382z"/>
						</g>
					</g>
				</g>
				<path style="fill:#656872;" d="M106,390.44V340H83.01H72.5v50.44c0,7.49,6.07,13.56,13.56,13.56h33.5      C112.07,404,106,397.93,106,390.44z"/>
			</g>
			<g>
				<g>
					<g>
						<path style="fill:#DE4242;" d="M51.5,209v3.66c0,7.37-5.97,13.34-13.34,13.34H20.84c-7.37,0-13.34-5.97-13.34-13.34v-7.32        c0-7.37,5.97-13.34,13.34-13.34h17.32c7.37,0,13.34,5.97,13.34,13.34V209z"/>
					</g>
				</g>
			</g>
		</g>
		<path style="fill:#FC5151;" d="M385.51,316.71c-0.63-17.8-2.71-35.97-6.12-54.46c-2.58-14.07-14.91-24.25-29.21-24.25H88.76    c-14.28,0-26.6,10.14-29.2,24.19c-3.39,18.32-5.46,36.5-6.07,54.52c-0.12,3.09-0.18,6.16-0.2,9.24    C53.18,342.49,66.47,356,83.01,356h56.49h31h98h31h56.49c16.54,0,29.86-13.5,29.73-30.04C385.7,322.89,385.63,319.8,385.51,316.71    z"/>
		<path style="fill:#EF3A3A;" d="M110.326,325.95c0.02-3.08,0.08-6.15,0.2-9.24c0.61-18.02,2.68-36.2,6.07-54.52    c2.6-14.05,14.92-24.19,29.2-24.19H88.76c-14.28,0-26.6,10.14-29.2,24.19c-3.39,18.32-5.46,36.5-6.07,54.52    c-0.12,3.09-0.18,6.16-0.2,9.24C53.18,342.49,66.47,356,83.01,356h56.49h0.546C123.506,356,110.216,342.49,110.326,325.95z"/>
		<g>
			<path style="fill:#DE4242;" d="M385.51,316.71h-0.01h-83.96H137.46H53.49c-0.12,3.09-0.18,6.16-0.2,9.24     C53.18,342.49,66.47,356,83.01,356h56.49h31h98h31h56.49c16.54,0,29.86-13.5,29.73-30.04     C385.7,322.89,385.63,319.8,385.51,316.71z"/>
		</g>
		<path style="fill:#D12424;" d="M110.326,325.95c0.02-3.08,0.08-6.15,0.2-9.24H53.49c-0.12,3.09-0.18,6.16-0.2,9.24    C53.18,342.49,66.47,356,83.01,356h56.49h0.546C123.506,356,110.216,342.49,110.326,325.95z"/>
		<g>
			<g>
				<g>
					<path style="fill:#D1D5CD;" d="M137.46,316.71c-0.83-2.64-1.08-5.52-0.63-8.47l3.02-19.7c1.42-9.23,9.35-16.04,18.69-16.04       h121.92c9.34,0,17.27,6.81,18.69,16.04l3.02,19.7c0.45,2.95,0.2,5.83-0.63,8.47c-2.37,7.61-9.47,13.29-18.06,13.29H155.52       C146.93,330,139.83,324.32,137.46,316.71z"/>
				</g>
			</g>
		</g>
		<path style="fill:#C4C6C2;" d="M295.98,319.194H168.02c-8.59,0-15.69-5.68-18.06-13.29c-0.83-2.64-1.08-5.52-0.63-8.47l3.02-19.7    c0.248-1.615,0.707-3.149,1.326-4.592c-7.112,1.891-12.661,7.826-13.826,15.398l-3.02,19.7c-0.45,2.95-0.2,5.83,0.63,8.47    c2.37,7.61,9.47,13.29,18.06,13.29h127.96c7.877,0,14.489-4.782,17.362-11.442C299.294,318.968,297.667,319.194,295.98,319.194z"/>
		<g>
			<g>
				<g>
					<path style="fill:#C8E5FC;" d="M100.5,259c10.49,0,19,8.51,19,19s-8.51,19-19,19s-19-8.51-19-19S90.01,259,100.5,259z"/>
				</g>
			</g>
		</g>
		<path style="fill:#5FED65;" d="M370.5,108c-73.45,0-133,59.55-133,133s59.55,133,133,133s133-59.55,133-133S443.95,108,370.5,108z    "/>
		<path style="fill:#2BD62B;" d="M316.5,241c0-59.696,39.336-110.209,93.5-127.035c-12.479-3.876-25.746-5.965-39.5-5.965    c-73.45,0-133,59.55-133,133s59.55,133,133,133c13.754,0,27.021-2.089,39.5-5.965C355.836,351.209,316.5,300.696,316.5,241z"/>
		<g>
			<g>
				<path style="fill:#C8E5FC;" d="M370.5,134c59.09,0,107,47.91,107,107s-47.91,107-107,107s-107-47.91-107-107      S311.41,134,370.5,134z"/>
			</g>
		</g>
		<path style="fill:#B8DCF4;" d="M394.5,343c-59.09,0-107-47.91-107-107c0-47.284,30.68-87.403,73.215-101.55    C306.211,139.394,263.5,185.209,263.5,241c0,59.09,47.91,107,107,107c11.806,0,23.164-1.917,33.785-5.45    C401.062,342.842,397.799,343,394.5,343z"/>
	</g>
	<g>
		<path d="M100.5,250.5C85.888,250.5,74,262.388,74,277s11.888,26.5,26.5,26.5S127,291.612,127,277S115.112,250.5,100.5,250.5z     M100.5,288.5c-6.341,0-11.5-5.159-11.5-11.5s5.159-11.5,11.5-11.5S112,270.659,112,277S106.841,288.5,100.5,288.5z"/>
		<path d="M179.5,292.5h-14c-4.142,0-7.5,3.357-7.5,7.5s3.358,7.5,7.5,7.5h14c4.142,0,7.5-3.357,7.5-7.5S183.642,292.5,179.5,292.5z    "/>
		<path d="M224.5,292.5h-21c-4.142,0-7.5,3.357-7.5,7.5s3.358,7.5,7.5,7.5h21c4.142,0,7.5-3.357,7.5-7.5S228.642,292.5,224.5,292.5z    "/>
		<path d="M115.506,192.5c1.566,0,3.145-0.488,4.494-1.5l16-12c3.313-2.485,3.985-7.187,1.5-10.5c-2.485-3.314-7.187-3.984-10.5-1.5    l-16,12c-3.313,2.485-3.985,7.187-1.5,10.5C110.974,191.465,113.226,192.5,115.506,192.5z"/>
		<path d="M170.06,175.081c-2.439-3.347-7.13-4.083-10.479-1.641l-48,35c-3.347,2.44-4.082,7.132-1.641,10.479    c1.468,2.014,3.751,3.082,6.066,3.082c1.532,0,3.079-0.469,4.413-1.441l48-35C171.766,183.119,172.5,178.428,170.06,175.081z"/>
		<path d="M370.5,100.5c-24.223,0-47.033,6.162-66.947,17H120.785c-15.688,0-28.857,11.737-30.662,27.314l-9.31,70.414    l-6.941-11.183c-1.368-2.204-3.778-3.545-6.372-3.545h-8.87c-1.808-9.661-10.291-17-20.468-17H20.838    C9.348,183.5,0,192.848,0,204.338v7.324c0,11.49,9.348,20.838,20.838,20.838h17.324c10.178,0,18.66-7.339,20.468-17h4.698    l10.599,17.077c-11.062,4.796-19.443,14.81-21.745,27.245c-3.459,18.695-5.513,37.182-6.162,55.11    c-0.027,0.257-0.041,0.518-0.041,0.782c0,0.03,0.004,0.06,0.005,0.09c-0.103,3.048-0.176,6.083-0.195,9.096    c-0.066,10.055,3.79,19.512,10.859,26.627c2.511,2.528,5.324,4.642,8.352,6.325v31.583c0,11.615,9.45,21.064,21.064,21.064h39.871    c11.615,0,21.064-9.449,21.064-21.064V388.5h13.074c9.885,0,17.926-8.041,17.926-17.926V362.5h121.5    c0.16,0,0.317-0.014,0.474-0.024c20.741,12.088,44.837,19.024,70.526,19.024c77.472,0,140.5-63.028,140.5-140.5    S447.972,100.5,370.5,100.5z M44,211.662c0,3.219-2.619,5.838-5.838,5.838H20.838c-3.219,0-5.838-2.619-5.838-5.838v-7.324    c0-3.219,2.619-5.838,5.838-5.838h17.324c3.219,0,5.838,2.619,5.838,5.838V211.662z M120.785,132.5h160.549    c-4.564,3.757-8.884,7.799-12.94,12.093H105.388C107.1,137.578,113.391,132.5,120.785,132.5z M230.473,229.5H94.057l9.243-69.907    h152.749C241.748,179.64,232.583,203.587,230.473,229.5z M132,389.436c0,3.344-2.721,6.064-6.064,6.064H86.064    c-3.344,0-6.064-2.721-6.064-6.064V362.5l0,0h52l-0.667-0.667L132,389.436z M163,370.574c0,1.613-1.313,2.926-2.926,2.926H147v-11    h16V370.574z M278.962,347.5H83.013l0,0c-5.947,0-11.531-2.324-15.723-6.544c-4.232-4.26-6.541-9.927-6.5-15.956    c0.004-0.592,0.026-1.192,0.033-1.786h71.792c0.822,1.435,1.776,2.805,2.871,4.081c5.021,5.85,12.323,9.205,20.033,9.205H237.5    c4.142,0,7.5-3.357,7.5-7.5s-3.358-7.5-7.5-7.5h-81.981c-3.33,0-6.483-1.449-8.652-3.976c-0.968-1.127-1.678-2.42-2.141-3.793    c-0.057-0.21-0.124-0.415-0.199-0.617c-0.419-1.526-0.525-3.14-0.279-4.744l3.017-19.694c0.859-5.606,5.599-9.676,11.271-9.676    H220.5c4.142,0,7.5-3.357,7.5-7.5s-3.358-7.5-7.5-7.5h-61.964c-13.133,0-24.109,9.422-26.098,22.404l-3.017,19.694    c-0.108,0.705-0.177,1.41-0.228,2.115H61.35c0.864-14.916,2.723-30.207,5.583-45.663c1.936-10.46,11.116-18.051,21.83-18.051    h141.282C231.055,285.627,249.827,322.423,278.962,347.5L278.962,347.5z M370.5,366.5C301.299,366.5,245,310.201,245,241    s56.299-125.5,125.5-125.5S496,171.799,496,241S439.701,366.5,370.5,366.5z"/>
		<path d="M458.437,194.416C466.001,208.665,470,224.773,470,241c0,54.864-44.636,99.5-99.5,99.5S271,295.864,271,241    s44.636-99.5,99.5-99.5c27.178,0,52.564,10.76,71.483,30.297c2.881,2.974,7.63,3.051,10.605,0.17    c2.976-2.882,3.052-7.63,0.17-10.605c-21.77-22.48-50.983-34.861-82.259-34.861C307.364,126.5,256,177.864,256,241    s51.364,114.5,114.5,114.5S485,304.136,485,241c0-18.67-4.604-37.211-13.314-53.617c-1.942-3.659-6.484-5.05-10.141-3.107    C457.886,186.218,456.495,190.758,458.437,194.416z"/>
		<path d="M370.5,172.5c-4.142,0-7.5,3.357-7.5,7.5v61c0,1.989,0.79,3.896,2.197,5.304l48,48c1.464,1.464,3.384,2.196,5.303,2.196    s3.839-0.732,5.303-2.196c2.929-2.93,2.929-7.678,0-10.607L378,237.894V180C378,175.857,374.642,172.5,370.5,172.5z"/>
	</g>
</g>















</svg>
