<?xml version="1.0" encoding="iso-8859-1"?>
<!-- Generator: Adobe Illustrator 19.0.0, SVG Export Plug-In . SVG Version: 6.00 Build 0)  -->
<svg xmlns="http://www.w3.org/2000/svg" xmlns:xlink="http://www.w3.org/1999/xlink" version="1.1" id="Layer_1" x="0px" y="0px" viewBox="0 0 512 512" style="enable-background:new 0 0 512 512;" xml:space="preserve" width="512" height="512">
<g>
	<g>
		<g>
			<path style="fill:#C8E5FC;" d="M353.5,249l-11.23-84.91l-0.84-6.36C340.09,145.92,330.1,137,318.21,137H120.79     c-11.89,0-21.88,8.92-23.22,20.73l-0.84,6.36L85.5,249v12.567h269.018L353.5,249z"/>
			<path style="fill:#B8DCF4;" d="M145.221,164.09l0.84-6.36c1.34-11.81,11.33-20.73,23.22-20.73H120.79     c-11.89,0-21.88,8.92-23.22,20.73l-0.84,6.36L85.5,249v12.567h48.491V249L145.221,164.09z"/>
			<g>
				<g>
					<g>
						<path style="fill:#74767F;" d="M341.43,157.73l0.84,6.36H96.73l0.84-6.36C98.91,145.92,108.9,137,120.79,137h197.42        C330.1,137,340.09,145.92,341.43,157.73z"/>
					</g>
				</g>
			</g>
			<path style="fill:#636570;" d="M145.221,164.09L145.221,164.09l0.84-6.36c1.34-11.81,11.33-20.73,23.22-20.73H120.79     c-2.229,0-4.392,0.313-6.443,0.901c-1.368,0.392-2.686,0.905-3.941,1.528c-2.511,1.247-4.771,2.933-6.675,4.964     c-1.904,2.032-3.452,4.409-4.539,7.038c-0.815,1.971-1.37,4.084-1.622,6.298l-0.84,6.36H145.221z"/>
			<g>
				<g>
					<g>
						<path style="fill:#D1D5CD;" d="M306.5,350v43h-27.57c-5.76,0-10.43-4.67-10.43-10.43V350H306.5z"/>
					</g>
				</g>
			</g>
			<g>
				<g>
					<g>
						<path style="fill:#D1D5CD;" d="M170.5,350v32.57c0,5.76-4.67,10.43-10.43,10.43H122.5v-43H170.5z"/>
					</g>
				</g>
			</g>
			<g>
				<g>
					<g>
						<g>
							<path style="fill:#74767F;" d="M366.5,350v51.44c0,7.49-6.07,13.56-13.56,13.56h-39.88c-7.49,0-13.56-6.07-13.56-13.56V393         v-43h56.49H366.5z"/>
						</g>
					</g>
				</g>
				<g>
					<g>
						<g>
							<path style="fill:#74767F;" d="M139.5,393v8.44c0,7.49-6.07,13.56-13.56,13.56H86.06c-7.49,0-13.56-6.07-13.56-13.56V350         h10.51h56.49V393z"/>
						</g>
					</g>
				</g>
			</g>
			<g>
				<path style="fill:#656872;" d="M333,401.44V393v-43h-33.5v43v8.44c0,7.49,6.07,13.56,13.56,13.56h33.5      C339.07,415,333,408.93,333,401.44z"/>
				<path style="fill:#656872;" d="M106,401.44V350H83.01H72.5v51.44c0,7.49,6.07,13.56,13.56,13.56h33.5      C112.07,415,106,408.93,106,401.44z"/>
			</g>
			<g>
				<g>
					<g>
						<path style="fill:#DE4242;" d="M51.5,220v3.66c0,7.37-5.97,13.34-13.34,13.34H20.84c-7.37,0-13.34-5.97-13.34-13.34v-7.32        c0-7.37,5.97-13.34,13.34-13.34h17.32c7.37,0,13.34,5.97,13.34,13.34V220z"/>
					</g>
				</g>
			</g>
		</g>
		<g>
			<path style="fill:#FC5151;" d="M385.51,327.71c-0.63-17.8-2.71-35.97-6.12-54.46c-2.58-14.07-14.91-24.25-29.21-24.25H88.76     c-14.28,0-26.6,10.14-29.2,24.19c-3.39,18.32-5.46,36.5-6.07,54.52c-0.12,3.09-0.18,6.16-0.2,9.24     C53.18,353.49,66.47,367,83.01,367h56.49h31h98h31h56.49c16.54,0,29.86-13.5,29.73-30.04     C385.7,333.89,385.63,330.8,385.51,327.71z"/>
			<path style="fill:#EF3A3A;" d="M110.986,336.95c0.02-3.08,0.08-6.15,0.2-9.24c0.61-18.02,2.68-36.2,6.07-54.52     c2.6-14.05,14.92-24.19,29.2-24.19H88.76c-14.28,0-26.6,10.14-29.2,24.19c-3.39,18.32-5.46,36.5-6.07,54.52     c-0.12,3.09-0.18,6.16-0.2,9.24C53.18,353.49,66.47,367,83.01,367h56.49h1.206C124.166,367,110.876,353.49,110.986,336.95z"/>
			<g>
				<g>
					<g>
						<path style="fill:#DE4242;" d="M385.72,336.96c0.13,16.54-13.19,30.04-29.73,30.04H299.5h-31h-98h-31H83.01        c-16.54,0-29.83-13.51-29.72-30.05c0.02-3.08,0.08-6.15,0.2-9.24H385.5h0.01C385.63,330.8,385.7,333.89,385.72,336.96z"/>
					</g>
				</g>
			</g>
			<path style="fill:#D12424;" d="M110.986,336.95c0.02-3.08,0.08-6.15,0.2-9.24H53.49c-0.06,1.545-0.105,3.085-0.138,4.624     c-0.033,1.539-0.052,3.076-0.063,4.616c-0.086,12.922,8.007,23.994,19.438,28.22c3.201,1.183,6.664,1.83,10.282,1.83h56.49h1.206     C124.166,367,110.876,353.49,110.986,336.95z"/>
			<g>
				<g>
					<g>
						<path style="fill:#D1D5CD;" d="M137.46,327.71c-0.83-2.64-1.08-5.52-0.63-8.47l3.02-19.7c1.42-9.23,9.35-16.04,18.69-16.04        h121.92c9.34,0,17.27,6.81,18.69,16.04l3.02,19.7c0.45,2.95,0.2,5.83-0.63,8.47c-2.37,7.61-9.47,13.29-18.06,13.29H155.52        C146.93,341,139.83,335.32,137.46,327.71z"/>
					</g>
				</g>
			</g>
			<path style="fill:#C4C6C2;" d="M296.625,332.665h-127.96c-8.59,0-15.69-5.68-18.06-13.29c-0.83-2.64-1.08-5.52-0.63-8.47     l3.02-19.7c0.424-2.757,1.44-5.292,2.89-7.5c-8.15,1.151-14.752,7.496-16.035,15.835l-3.02,19.7c-0.45,2.95-0.2,5.83,0.63,8.47     c2.37,7.61,9.47,13.29,18.06,13.29h127.96c6.672,0,12.434-3.435,15.79-8.532C298.406,332.589,297.526,332.665,296.625,332.665z"/>
			<g>
				<g>
					<g>
						<path style="fill:#C8E5FC;" d="M100.5,270c10.49,0,19,8.51,19,19s-8.51,19-19,19s-19-8.51-19-19S90.01,270,100.5,270z"/>
					</g>
				</g>
			</g>
		</g>
		<g id="XMLID_53_">
			<g>
				<g>
					<g>
						<path style="fill:#87A1FF;" d="M504.5,363.914v70.426c0,2.021-1.639,3.66-3.66,3.66h-13.35c-7.174,0-12.99-5.816-12.99-12.99        v-12.05c-17.81-4.07-34.49-11.1-49.51-20.54l-8.54,8.55c-5.08,5.07-13.3,5.07-18.37,0l-32.55-32.55        c-5.07-5.07-5.07-13.29,0-18.37l8.55-8.54c-9.44-15.02-16.47-31.7-20.54-49.51h-12.05c-7.174,0-12.99-5.816-12.99-12.99        v-46.02c0-7.174,5.816-12.99,12.99-12.99h12.05c4.07-17.81,11.1-34.49,20.54-49.51l-8.55-8.54c-5.07-5.08-5.07-13.3,0-18.37        l32.55-32.55c5.07-5.07,13.29-5.07,18.37,0l8.54,8.55c15.02-9.44,31.7-16.47,49.51-20.54V86.99        c0-7.174,5.816-12.99,12.99-12.99h13.35c2.021,0,3.66,1.639,3.66,3.66v70.426c0,1.851-1.383,3.414-3.222,3.628        C449.004,157.772,407.5,202.142,407.5,256s41.504,98.228,93.778,104.287C503.117,360.5,504.5,362.063,504.5,363.914z"/>
					</g>
				</g>
			</g>
		</g>
		<path style="fill:#7799F7;" d="M368.5,254c0-76.737,60.233-139.405,136-143.306V77.66c0-2.021-1.639-3.66-3.66-3.66h-13.35    c-7.174,0-12.99,5.816-12.99,12.99v12.05c-17.81,4.07-34.49,11.1-49.51,20.54l-8.54-8.55c-5.08-5.07-13.3-5.07-18.37,0    l-32.55,32.55c-5.07,5.07-5.07,13.29,0,18.37l8.55,8.54c-9.44,15.02-16.47,31.7-20.54,49.51h-12.05    c-7.174,0-12.99,5.816-12.99,12.99v46.02c0,7.174,5.816,12.99,12.99,12.99h12.05c4.07,17.81,11.1,34.49,20.54,49.51l-8.55,8.54    c-5.07,5.08-5.07,13.3,0,18.37l32.55,32.55c5.07,5.07,13.29,5.07,18.37,0l8.54-8.55c15.02,9.44,31.7,16.47,49.51,20.54v12.05    c0,7.174,5.816,12.99,12.99,12.99h13.35c2.021,0,3.66-1.639,3.66-3.66v-37.034C428.733,393.405,368.5,330.737,368.5,254z"/>
	</g>
	<g>
		<path d="M166.5,320.5h14c4.142,0,7.5-3.357,7.5-7.5s-3.358-7.5-7.5-7.5h-14c-4.142,0-7.5,3.357-7.5,7.5S162.358,320.5,166.5,320.5    z"/>
		<path d="M204.5,320.5h71c4.142,0,7.5-3.357,7.5-7.5s-3.358-7.5-7.5-7.5h-71c-4.142,0-7.5,3.357-7.5,7.5S200.358,320.5,204.5,320.5    z"/>
		<path d="M100.5,263.5C85.888,263.5,74,275.388,74,290s11.888,26.5,26.5,26.5S127,304.612,127,290S115.112,263.5,100.5,263.5z     M100.5,301.5c-6.341,0-11.5-5.159-11.5-11.5s5.159-11.5,11.5-11.5S112,283.659,112,290S106.841,301.5,100.5,301.5z"/>
		<path d="M115.506,205.5c1.566,0,3.145-0.488,4.494-1.5l16-12c3.313-2.485,3.985-7.187,1.5-10.5c-2.485-3.314-7.186-3.984-10.5-1.5    l-16,12c-3.313,2.485-3.985,7.187-1.5,10.5C110.974,204.465,113.226,205.5,115.506,205.5z"/>
		<path d="M116.006,235.001c1.532,0,3.079-0.469,4.413-1.441l48-35c3.347-2.44,4.082-7.132,1.641-10.479s-7.131-4.083-10.479-1.641    l-48,35c-3.347,2.44-4.082,7.132-1.641,10.479C111.408,233.933,113.691,235.001,116.006,235.001z"/>
		<path d="M510.973,150.76c-0.35-4.127-3.974-7.192-8.108-6.838c-27.982,2.376-53.922,15.087-73.041,35.791    C410.592,200.54,400,227.633,400,256c0,20.486,5.564,40.544,16.092,58.004c1.409,2.336,3.888,3.628,6.43,3.628    c1.318,0,2.654-0.348,3.865-1.078c3.547-2.139,4.689-6.748,2.55-10.296C419.82,291.136,415,273.757,415,256    c0-24.584,9.178-48.063,25.844-66.111c16.572-17.945,39.048-28.963,63.291-31.021C508.262,158.518,511.324,154.888,510.973,150.76    z"/>
		<path d="M504.135,353.133c-21.577-1.833-41.452-10.561-57.476-25.239c-3.054-2.798-7.797-2.589-10.596,0.464    c-2.798,3.055-2.59,7.799,0.464,10.597c18.49,16.938,41.429,27.009,66.338,29.124c0.216,0.019,0.431,0.027,0.643,0.027    c3.855,0,7.133-2.954,7.465-6.865C511.324,357.113,508.262,353.482,504.135,353.133z"/>
		<path d="M504.5,66.5h-17.013C476.19,66.5,467,75.69,467,86.986v6.188c-14.311,3.813-28.01,9.493-40.861,16.945l-4.39-4.391    c-7.987-7.986-20.984-7.986-28.973,0.001l-6.662,6.662c-2.929,2.929-2.928,7.678,0,10.606c2.93,2.928,7.677,2.929,10.607-0.001    l6.661-6.661c2.14-2.141,5.62-2.14,7.76-0.001l8.542,8.542c1.447,1.448,3.368,2.197,5.306,2.197c1.375,0,2.758-0.377,3.987-1.149    c14.59-9.165,30.469-15.749,47.194-19.569c3.411-0.779,5.83-3.813,5.83-7.312V86.986c0-3.025,2.461-5.486,5.487-5.486H504.5    c4.142,0,7.5-3.357,7.5-7.5S508.642,66.5,504.5,66.5z"/>
		<path d="M504.5,430.5h-17.013c-3.025,0-5.487-2.461-5.487-5.486v-12.059c0-3.499-2.419-6.532-5.83-7.312    c-16.725-3.82-32.604-10.404-47.194-19.569c-2.963-1.862-6.819-1.429-9.292,1.048l-8.542,8.541c-2.139,2.141-5.619,2.142-7.76,0    l-31.279-31.279c-0.524-0.95-1.252-1.769-2.119-2.411c-0.479-0.826-0.754-1.755-0.754-2.735c0-1.466,0.57-2.844,1.607-3.88    l8.542-8.541c2.474-2.475,2.909-6.33,1.048-9.293c-9.166-14.592-15.75-30.471-19.57-47.194c-0.779-3.411-3.813-5.83-7.312-5.83    h-12.058c-3.025,0-5.487-2.461-5.487-5.486v-46.027c0-3.025,2.461-5.486,5.487-5.486h12.058c3.499,0,6.533-2.419,7.312-5.83    c3.82-16.724,10.405-32.603,19.57-47.194c1.861-2.963,1.426-6.818-1.048-9.293l-8.542-8.541c-1.037-1.036-1.607-2.414-1.607-3.88    c0-1.465,0.57-2.843,1.607-3.879l4.642-4.642c2.929-2.929,2.929-7.678,0-10.606c-2.93-2.93-7.678-2.929-10.607-0.001l-4.642,4.642    c-3.87,3.869-6,9.015-6,14.486c0,5.473,2.131,10.618,6,14.487l4.39,4.389c-7.452,12.854-13.133,26.553-16.946,40.862h-6.188    c-11.296,0-20.487,9.19-20.487,20.486v9.514H94.057l9.243-69.907H313.5c4.142,0,7.5-3.357,7.5-7.5s-3.358-7.5-7.5-7.5H105.388    c1.712-7.015,8.003-12.093,15.397-12.093h205.821c4.396,0,8.132,3.144,8.886,7.474c0.709,4.081,4.589,6.814,8.675,6.104    c4.081-0.71,6.813-4.594,6.104-8.674c-2.006-11.533-11.958-19.903-23.664-19.903H120.785c-15.688,0-28.856,11.735-30.662,27.311    l-9.31,70.417l-6.941-11.183c-1.368-2.204-3.778-3.545-6.372-3.545h-8.87c-1.808-9.661-10.291-17-20.468-17H20.838    C9.348,196.5,0,205.848,0,217.338v7.324c0,11.49,9.348,20.838,20.838,20.838h17.324c10.178,0,18.66-7.339,20.468-17h4.698    l10.599,17.077c-11.062,4.795-19.444,14.81-21.744,27.245c-3.459,18.696-5.513,37.183-6.162,55.109    c-0.027,0.258-0.041,0.519-0.041,0.783c0,0.031,0.004,0.061,0.005,0.091c-0.103,3.047-0.176,6.083-0.196,9.095    c-0.066,10.056,3.791,19.512,10.859,26.628c2.511,2.527,5.324,4.641,8.352,6.324v31.583c0,11.615,9.45,21.064,21.064,21.064    h39.871c11.615,0,21.064-9.449,21.064-21.064V401.5h13.074c9.885,0,17.926-8.041,17.926-17.926V375.5h83v8.074    c0,9.885,8.042,17.926,17.926,17.926H292v0.936c0,11.615,9.45,21.064,21.064,21.064h44.048c9.312,0,16.887-7.576,16.887-16.888    v-7.188c0-4.143-3.358-7.5-7.5-7.5s-7.5,3.357-7.5,7.5v7.188c0,1.041-0.847,1.888-1.887,1.888h-44.048    c-3.344,0-6.064-2.721-6.064-6.064V394v-18.5h9.5h45.506l30.77,30.771c7.989,7.987,20.986,7.987,28.973-0.001l4.39-4.39    c12.852,7.452,26.551,13.133,40.861,16.945v6.188c0,11.296,9.19,20.486,20.487,20.486H504.5c4.142,0,7.5-3.357,7.5-7.5    S508.642,430.5,504.5,430.5z M44,224.662c0,3.219-2.619,5.838-5.838,5.838H20.838c-3.219,0-5.838-2.619-5.838-5.838v-7.324    c0-3.219,2.619-5.838,5.838-5.838h17.324c3.219,0,5.838,2.619,5.838,5.838V224.662z M132,402.436c0,3.344-2.721,6.064-6.064,6.064    H86.064c-3.344,0-6.064-2.721-6.064-6.064V375.5h3.013H132V394V402.436z M163,383.574c0,1.613-1.313,2.926-2.926,2.926H147v-11h16    V383.574z M292,386.5h-13.074c-1.614,0-2.926-1.313-2.926-2.926V375.5h16V386.5z M299.5,360.5h-31h-98h-31H83.013    c-5.947,0-11.531-2.324-15.723-6.544c-4.232-4.26-6.541-9.927-6.501-15.956c0.004-0.592,0.026-1.192,0.033-1.786h71.792    c0.822,1.435,1.775,2.805,2.871,4.081c5.022,5.85,12.324,9.205,20.034,9.205h127.962c7.71,0,15.012-3.355,20.034-9.205    c1.096-1.276,2.049-2.646,2.871-4.081H331.5c4.142,0,7.5-3.357,7.5-7.5s-3.358-7.5-7.5-7.5h-21.693    c-0.051-0.705-0.12-1.41-0.228-2.114l-3.017-19.695C304.573,286.422,293.597,277,280.464,277H158.536    c-13.133,0-24.109,9.422-26.098,22.404l-3.017,19.695c-0.108,0.705-0.177,1.41-0.228,2.114H61.35    c0.864-14.915,2.723-30.206,5.583-45.664c1.935-10.459,11.116-18.05,21.829-18.05H321v21.514c0,11.296,9.19,20.486,20.487,20.486    h6.188c3.812,14.31,9.493,28.009,16.945,40.862l-4.39,4.389c-3.87,3.869-6,9.015-6,14.487c0,0.424,0.036,0.842,0.061,1.262H316.5    H299.5z M144.248,321.371l3.017-19.695c0.859-5.606,5.599-9.676,11.271-9.676h121.928c5.672,0,10.412,4.069,11.271,9.676    l3.017,19.695c0.246,1.604,0.139,3.216-0.279,4.742c-0.075,0.203-0.142,0.408-0.199,0.619c-0.462,1.373-1.173,2.666-2.14,3.792    c-2.169,2.526-5.323,3.976-8.652,3.976H155.519c-3.33,0-6.483-1.449-8.652-3.976c-0.967-1.126-1.677-2.419-2.14-3.792    c-0.058-0.211-0.124-0.417-0.199-0.619C144.109,324.587,144.002,322.975,144.248,321.371z"/>
	</g>
</g>
<g>
	<g>
		<path style="fill:#C8E5FC;" d="M353.5,249l-11.23-84.91l-0.84-6.36C340.09,145.92,330.1,137,318.21,137H120.79    c-11.89,0-21.88,8.92-23.22,20.73l-0.84,6.36L85.5,249v12.567h269.018L353.5,249z"/>
		<path style="fill:#B8DCF4;" d="M145.221,164.09l0.84-6.36c1.34-11.81,11.33-20.73,23.22-20.73H120.79    c-11.89,0-21.88,8.92-23.22,20.73l-0.84,6.36L85.5,249v12.567h48.491V249L145.221,164.09z"/>
		<g>
			<g>
				<g>
					<path style="fill:#74767F;" d="M341.43,157.73l0.84,6.36H96.73l0.84-6.36C98.91,145.92,108.9,137,120.79,137h197.42       C330.1,137,340.09,145.92,341.43,157.73z"/>
				</g>
			</g>
		</g>
		<path style="fill:#636570;" d="M145.221,164.09L145.221,164.09l0.84-6.36c1.34-11.81,11.33-20.73,23.22-20.73H120.79    c-2.229,0-4.392,0.313-6.443,0.901c-1.368,0.392-2.686,0.905-3.941,1.528c-2.511,1.247-4.771,2.933-6.675,4.964    c-1.904,2.032-3.452,4.409-4.539,7.038c-0.815,1.971-1.37,4.084-1.622,6.298l-0.84,6.36H145.221z"/>
		<g>
			<g>
				<g>
					<path style="fill:#D1D5CD;" d="M306.5,350v43h-27.57c-5.76,0-10.43-4.67-10.43-10.43V350H306.5z"/>
				</g>
			</g>
		</g>
		<g>
			<g>
				<g>
					<path style="fill:#D1D5CD;" d="M170.5,350v32.57c0,5.76-4.67,10.43-10.43,10.43H122.5v-43H170.5z"/>
				</g>
			</g>
		</g>
		<g>
			<g>
				<g>
					<g>
						<path style="fill:#74767F;" d="M366.5,350v51.44c0,7.49-6.07,13.56-13.56,13.56h-39.88c-7.49,0-13.56-6.07-13.56-13.56V393        v-43h56.49H366.5z"/>
					</g>
				</g>
			</g>
			<g>
				<g>
					<g>
						<path style="fill:#74767F;" d="M139.5,393v8.44c0,7.49-6.07,13.56-13.56,13.56H86.06c-7.49,0-13.56-6.07-13.56-13.56V350        h10.51h56.49V393z"/>
					</g>
				</g>
			</g>
		</g>
		<g>
			<path style="fill:#656872;" d="M333,401.44V393v-43h-33.5v43v8.44c0,7.49,6.07,13.56,13.56,13.56h33.5     C339.07,415,333,408.93,333,401.44z"/>
			<path style="fill:#656872;" d="M106,401.44V350H83.01H72.5v51.44c0,7.49,6.07,13.56,13.56,13.56h33.5     C112.07,415,106,408.93,106,401.44z"/>
		</g>
		<g>
			<g>
				<g>
					<path style="fill:#DE4242;" d="M51.5,220v3.66c0,7.37-5.97,13.34-13.34,13.34H20.84c-7.37,0-13.34-5.97-13.34-13.34v-7.32       c0-7.37,5.97-13.34,13.34-13.34h17.32c7.37,0,13.34,5.97,13.34,13.34V220z"/>
				</g>
			</g>
		</g>
	</g>
	<g>
		<path style="fill:#FC5151;" d="M385.51,327.71c-0.63-17.8-2.71-35.97-6.12-54.46c-2.58-14.07-14.91-24.25-29.21-24.25H88.76    c-14.28,0-26.6,10.14-29.2,24.19c-3.39,18.32-5.46,36.5-6.07,54.52c-0.12,3.09-0.18,6.16-0.2,9.24    C53.18,353.49,66.47,367,83.01,367h56.49h31h98h31h56.49c16.54,0,29.86-13.5,29.73-30.04C385.7,333.89,385.63,330.8,385.51,327.71    z"/>
		<path style="fill:#EF3A3A;" d="M110.986,336.95c0.02-3.08,0.08-6.15,0.2-9.24c0.61-18.02,2.68-36.2,6.07-54.52    c2.6-14.05,14.92-24.19,29.2-24.19H88.76c-14.28,0-26.6,10.14-29.2,24.19c-3.39,18.32-5.46,36.5-6.07,54.52    c-0.12,3.09-0.18,6.16-0.2,9.24C53.18,353.49,66.47,367,83.01,367h56.49h1.206C124.166,367,110.876,353.49,110.986,336.95z"/>
		<g>
			<g>
				<g>
					<path style="fill:#DE4242;" d="M385.72,336.96c0.13,16.54-13.19,30.04-29.73,30.04H299.5h-31h-98h-31H83.01       c-16.54,0-29.83-13.51-29.72-30.05c0.02-3.08,0.08-6.15,0.2-9.24H385.5h0.01C385.63,330.8,385.7,333.89,385.72,336.96z"/>
				</g>
			</g>
		</g>
		<path style="fill:#D12424;" d="M110.986,336.95c0.02-3.08,0.08-6.15,0.2-9.24H53.49c-0.06,1.545-0.105,3.085-0.138,4.624    c-0.033,1.539-0.052,3.076-0.063,4.616c-0.086,12.922,8.007,23.994,19.438,28.22c3.201,1.183,6.664,1.83,10.282,1.83h56.49h1.206    C124.166,367,110.876,353.49,110.986,336.95z"/>
		<g>
			<g>
				<g>
					<path style="fill:#D1D5CD;" d="M137.46,327.71c-0.83-2.64-1.08-5.52-0.63-8.47l3.02-19.7c1.42-9.23,9.35-16.04,18.69-16.04       h121.92c9.34,0,17.27,6.81,18.69,16.04l3.02,19.7c0.45,2.95,0.2,5.83-0.63,8.47c-2.37,7.61-9.47,13.29-18.06,13.29H155.52       C146.93,341,139.83,335.32,137.46,327.71z"/>
				</g>
			</g>
		</g>
		<path style="fill:#C4C6C2;" d="M296.625,332.665h-127.96c-8.59,0-15.69-5.68-18.06-13.29c-0.83-2.64-1.08-5.52-0.63-8.47    l3.02-19.7c0.424-2.757,1.44-5.292,2.89-7.5c-8.15,1.151-14.752,7.496-16.035,15.835l-3.02,19.7c-0.45,2.95-0.2,5.83,0.63,8.47    c2.37,7.61,9.47,13.29,18.06,13.29h127.96c6.672,0,12.434-3.435,15.79-8.532C298.406,332.589,297.526,332.665,296.625,332.665z"/>
		<g>
			<g>
				<g>
					<path style="fill:#C8E5FC;" d="M100.5,270c10.49,0,19,8.51,19,19s-8.51,19-19,19s-19-8.51-19-19S90.01,270,100.5,270z"/>
				</g>
			</g>
		</g>
	</g>
	<g id="XMLID_47_">
		<g>
			<g>
				<g>
					<path style="fill:#87A1FF;" d="M504.5,363.914v70.426c0,2.021-1.639,3.66-3.66,3.66h-13.35c-7.174,0-12.99-5.816-12.99-12.99       v-12.05c-17.81-4.07-34.49-11.1-49.51-20.54l-8.54,8.55c-5.08,5.07-13.3,5.07-18.37,0l-32.55-32.55       c-5.07-5.07-5.07-13.29,0-18.37l8.55-8.54c-9.44-15.02-16.47-31.7-20.54-49.51h-12.05c-7.174,0-12.99-5.816-12.99-12.99v-46.02       c0-7.174,5.816-12.99,12.99-12.99h12.05c4.07-17.81,11.1-34.49,20.54-49.51l-8.55-8.54c-5.07-5.08-5.07-13.3,0-18.37       l32.55-32.55c5.07-5.07,13.29-5.07,18.37,0l8.54,8.55c15.02-9.44,31.7-16.47,49.51-20.54V86.99       c0-7.174,5.816-12.99,12.99-12.99h13.35c2.021,0,3.66,1.639,3.66,3.66v70.426c0,1.851-1.383,3.414-3.222,3.628       C449.004,157.772,407.5,202.142,407.5,256s41.504,98.228,93.778,104.287C503.117,360.5,504.5,362.063,504.5,363.914z"/>
				</g>
			</g>
		</g>
	</g>
	<path style="fill:#7799F7;" d="M368.5,254c0-76.737,60.233-139.405,136-143.306V77.66c0-2.021-1.639-3.66-3.66-3.66h-13.35   c-7.174,0-12.99,5.816-12.99,12.99v12.05c-17.81,4.07-34.49,11.1-49.51,20.54l-8.54-8.55c-5.08-5.07-13.3-5.07-18.37,0   l-32.55,32.55c-5.07,5.07-5.07,13.29,0,18.37l8.55,8.54c-9.44,15.02-16.47,31.7-20.54,49.51h-12.05   c-7.174,0-12.99,5.816-12.99,12.99v46.02c0,7.174,5.816,12.99,12.99,12.99h12.05c4.07,17.81,11.1,34.49,20.54,49.51l-8.55,8.54   c-5.07,5.08-5.07,13.3,0,18.37l32.55,32.55c5.07,5.07,13.29,5.07,18.37,0l8.54-8.55c15.02,9.44,31.7,16.47,49.51,20.54v12.05   c0,7.174,5.816,12.99,12.99,12.99h13.35c2.021,0,3.66-1.639,3.66-3.66v-37.034C428.733,393.405,368.5,330.737,368.5,254z"/>
</g>
<g>
	<path d="M166.5,320.5h14c4.142,0,7.5-3.357,7.5-7.5s-3.358-7.5-7.5-7.5h-14c-4.142,0-7.5,3.357-7.5,7.5S162.358,320.5,166.5,320.5z   "/>
	<path d="M204.5,320.5h71c4.142,0,7.5-3.357,7.5-7.5s-3.358-7.5-7.5-7.5h-71c-4.142,0-7.5,3.357-7.5,7.5S200.358,320.5,204.5,320.5z   "/>
	<path d="M100.5,263.5C85.888,263.5,74,275.388,74,290s11.888,26.5,26.5,26.5S127,304.612,127,290S115.112,263.5,100.5,263.5z    M100.5,301.5c-6.341,0-11.5-5.159-11.5-11.5s5.159-11.5,11.5-11.5S112,283.659,112,290S106.841,301.5,100.5,301.5z"/>
	<path d="M115.506,205.5c1.566,0,3.145-0.488,4.494-1.5l16-12c3.313-2.485,3.985-7.187,1.5-10.5c-2.485-3.314-7.186-3.984-10.5-1.5   l-16,12c-3.313,2.485-3.985,7.187-1.5,10.5C110.974,204.465,113.226,205.5,115.506,205.5z"/>
	<path d="M116.006,235.001c1.532,0,3.079-0.469,4.413-1.441l48-35c3.347-2.44,4.082-7.132,1.641-10.479s-7.131-4.083-10.479-1.641   l-48,35c-3.347,2.44-4.082,7.132-1.641,10.479C111.408,233.933,113.691,235.001,116.006,235.001z"/>
	<path d="M510.973,150.76c-0.35-4.127-3.974-7.192-8.108-6.838c-27.982,2.376-53.922,15.087-73.041,35.791   C410.592,200.54,400,227.633,400,256c0,20.486,5.564,40.544,16.092,58.004c1.409,2.336,3.888,3.628,6.43,3.628   c1.318,0,2.654-0.348,3.865-1.078c3.547-2.139,4.689-6.748,2.55-10.296C419.82,291.136,415,273.757,415,256   c0-24.584,9.178-48.063,25.844-66.111c16.572-17.945,39.048-28.963,63.291-31.021C508.262,158.518,511.324,154.888,510.973,150.76z   "/>
	<path d="M504.135,353.133c-21.577-1.833-41.452-10.561-57.476-25.239c-3.054-2.798-7.797-2.589-10.596,0.464   c-2.798,3.055-2.59,7.799,0.464,10.597c18.49,16.938,41.429,27.009,66.338,29.124c0.216,0.019,0.431,0.027,0.643,0.027   c3.855,0,7.133-2.954,7.465-6.865C511.324,357.113,508.262,353.482,504.135,353.133z"/>
	<path d="M504.5,66.5h-17.013C476.19,66.5,467,75.69,467,86.986v6.188c-14.311,3.813-28.01,9.493-40.861,16.945l-4.39-4.391   c-7.987-7.986-20.984-7.986-28.973,0.001l-6.662,6.662c-2.929,2.929-2.928,7.678,0,10.606c2.93,2.928,7.677,2.929,10.607-0.001   l6.661-6.661c2.14-2.141,5.62-2.14,7.76-0.001l8.542,8.542c1.447,1.448,3.368,2.197,5.306,2.197c1.375,0,2.758-0.377,3.987-1.149   c14.59-9.165,30.469-15.749,47.194-19.569c3.411-0.779,5.83-3.813,5.83-7.312V86.986c0-3.025,2.461-5.486,5.487-5.486H504.5   c4.142,0,7.5-3.357,7.5-7.5S508.642,66.5,504.5,66.5z"/>
	<path d="M504.5,430.5h-17.013c-3.025,0-5.487-2.461-5.487-5.486v-12.059c0-3.499-2.419-6.532-5.83-7.312   c-16.725-3.82-32.604-10.404-47.194-19.569c-2.963-1.862-6.819-1.429-9.292,1.048l-8.542,8.541c-2.139,2.141-5.619,2.142-7.76,0   l-31.279-31.279c-0.524-0.95-1.252-1.769-2.119-2.411c-0.479-0.826-0.754-1.755-0.754-2.735c0-1.466,0.57-2.844,1.607-3.88   l8.542-8.541c2.474-2.475,2.909-6.33,1.048-9.293c-9.166-14.592-15.75-30.471-19.57-47.194c-0.779-3.411-3.813-5.83-7.312-5.83   h-12.058c-3.025,0-5.487-2.461-5.487-5.486v-46.027c0-3.025,2.461-5.486,5.487-5.486h12.058c3.499,0,6.533-2.419,7.312-5.83   c3.82-16.724,10.405-32.603,19.57-47.194c1.861-2.963,1.426-6.818-1.048-9.293l-8.542-8.541c-1.037-1.036-1.607-2.414-1.607-3.88   c0-1.465,0.57-2.843,1.607-3.879l4.642-4.642c2.929-2.929,2.929-7.678,0-10.606c-2.93-2.93-7.678-2.929-10.607-0.001l-4.642,4.642   c-3.87,3.869-6,9.015-6,14.486c0,5.473,2.131,10.618,6,14.487l4.39,4.389c-7.452,12.854-13.133,26.553-16.946,40.862h-6.188   c-11.296,0-20.487,9.19-20.487,20.486v9.514H94.057l9.243-69.907H313.5c4.142,0,7.5-3.357,7.5-7.5s-3.358-7.5-7.5-7.5H105.388   c1.712-7.015,8.003-12.093,15.397-12.093h205.821c4.396,0,8.132,3.144,8.886,7.474c0.709,4.081,4.589,6.814,8.675,6.104   c4.081-0.71,6.813-4.594,6.104-8.674c-2.006-11.533-11.958-19.903-23.664-19.903H120.785c-15.688,0-28.856,11.735-30.662,27.311   l-9.31,70.417l-6.941-11.183c-1.368-2.204-3.778-3.545-6.372-3.545h-8.87c-1.808-9.661-10.291-17-20.468-17H20.838   C9.348,196.5,0,205.848,0,217.338v7.324c0,11.49,9.348,20.838,20.838,20.838h17.324c10.178,0,18.66-7.339,20.468-17h4.698   l10.599,17.077c-11.062,4.795-19.444,14.81-21.744,27.245c-3.459,18.696-5.513,37.183-6.162,55.109   c-0.027,0.258-0.041,0.519-0.041,0.783c0,0.031,0.004,0.061,0.005,0.091c-0.103,3.047-0.176,6.083-0.196,9.095   c-0.066,10.056,3.791,19.512,10.859,26.628c2.511,2.527,5.324,4.641,8.352,6.324v31.583c0,11.615,9.45,21.064,21.064,21.064h39.871   c11.615,0,21.064-9.449,21.064-21.064V401.5h13.074c9.885,0,17.926-8.041,17.926-17.926V375.5h83v8.074   c0,9.885,8.042,17.926,17.926,17.926H292v0.936c0,11.615,9.45,21.064,21.064,21.064h44.048c9.312,0,16.887-7.576,16.887-16.888   v-7.188c0-4.143-3.358-7.5-7.5-7.5s-7.5,3.357-7.5,7.5v7.188c0,1.041-0.847,1.888-1.887,1.888h-44.048   c-3.344,0-6.064-2.721-6.064-6.064l0,0V375.5l0,0h55.006l30.77,30.771c7.989,7.987,20.986,7.987,28.973-0.001l4.39-4.39   c12.852,7.452,26.551,13.133,40.861,16.945v6.188c0,11.296,9.19,20.486,20.487,20.486H504.5c4.142,0,7.5-3.357,7.5-7.5   S508.642,430.5,504.5,430.5z M44,224.662c0,3.219-2.619,5.838-5.838,5.838H20.838c-3.219,0-5.838-2.619-5.838-5.838v-7.324   c0-3.219,2.619-5.838,5.838-5.838h17.324c3.219,0,5.838,2.619,5.838,5.838V224.662z M132,402.436c0,3.344-2.721,6.064-6.064,6.064   H86.064c-3.344,0-6.064-2.721-6.064-6.064V375.5l0,0h52V402.436L132,402.436z M163,383.574c0,1.613-1.313,2.926-2.926,2.926H147   v-11h16V383.574z M292,386.5h-13.074c-1.614,0-2.926-1.313-2.926-2.926V375.5h16V386.5z M83.013,360.5   c-5.947,0-11.531-2.324-15.723-6.544c-4.232-4.26-6.541-9.927-6.501-15.956c0.004-0.592,0.026-1.192,0.033-1.786h71.792   c0.822,1.435,1.775,2.805,2.871,4.081c5.022,5.85,12.324,9.205,20.034,9.205h127.962c7.71,0,15.012-3.355,20.034-9.205   c1.096-1.276,2.049-2.646,2.871-4.081H331.5c4.142,0,7.5-3.357,7.5-7.5s-3.358-7.5-7.5-7.5h-21.693   c-0.051-0.705-0.12-1.41-0.228-2.114l-3.017-19.695C304.573,286.422,293.597,277,280.464,277H158.536   c-13.133,0-24.109,9.422-26.098,22.404l-3.017,19.695c-0.108,0.705-0.177,1.41-0.228,2.114H61.35   c0.864-14.915,2.723-30.206,5.583-45.664c1.935-10.459,11.116-18.05,21.829-18.05H321v21.514c0,11.296,9.19,20.486,20.487,20.486   h6.188c3.812,14.31,9.493,28.009,16.945,40.862l-4.39,4.389c-3.87,3.869-6,9.015-6,14.487c0,0.424,0.036,0.842,0.061,1.262H83.013    M144.248,321.371l3.017-19.695c0.859-5.606,5.599-9.676,11.271-9.676h121.928c5.672,0,10.412,4.069,11.271,9.676l3.017,19.695   c0.246,1.604,0.139,3.216-0.279,4.742c-0.075,0.203-0.142,0.408-0.199,0.619c-0.462,1.373-1.173,2.666-2.14,3.792   c-2.169,2.526-5.323,3.976-8.652,3.976H155.519c-3.33,0-6.483-1.449-8.652-3.976c-0.967-1.126-1.677-2.419-2.14-3.792   c-0.058-0.211-0.124-0.417-0.199-0.619C144.109,324.587,144.002,322.975,144.248,321.371z"/>
</g>















</svg>
